{
    "asset" : {
        "generator" : "Khronos glTF Blender I/O v1.7.33",
        "version" : "2.0"
    },
    "scene" : 0,
    "scenes" : [
        {
            "name" : "Scene",
            "nodes" : [
                5
            ]
        }
    ],
    "nodes" : [
        {
            "mesh" : 0,
            "name" : "Diamond_aiStandardSurface1_0"
        },
        {
            "children" : [
                0
            ],
            "name" : "Diamond"
        },
        {
            "children" : [
                1
            ],
            "name" : "RootNode"
        },
        {
            "children" : [
                2
            ],
            "name" : "f81cd9cd9b884114bc41f65072f01faa.fbx",
            "rotation" : [
                0.7071068286895752,
                0,
                0,
                0.7071068286895752
            ]
        },
        {
            "children" : [
                3
            ],
            "name" : "RootNode (model correction matrix)"
        },
        {
            "children" : [
                4
            ],
            "name" : "RootNode (gltf orientation matrix)",
            "rotation" : [
                -0.7071068286895752,
                0,
                0,
                0.7071068286895752
            ]
        }
    ],
    "materials" : [
        {
            "doubleSided" : true,
            "emissiveFactor" : [
                0.017101319506764412,
                0.017101319506764412,
                0.017101319506764412
            ],
            "emissiveTexture" : {
                "index" : 0
            },
            "name" : "aiStandardSurface1",
            "pbrMetallicRoughness" : {
                "baseColorTexture" : {
                    "index" : 1
                },
                "metallicFactor" : 0,
                "roughnessFactor" : 0.6000000238418579
            }
        }
    ],
    "meshes" : [
        {
            "name" : "Diamond_aiStandardSurface1_0",
            "primitives" : [
                {
                    "attributes" : {
                        "POSITION" : 0,
                        "NORMAL" : 1,
                        "TEXCOORD_0" : 2
                    },
                    "indices" : 3,
                    "material" : 0
                }
            ]
        }
    ],
    "textures" : [
        {
            "sampler" : 0,
            "source" : 0
        },
        {
            "sampler" : 0,
            "source" : 1
        }
    ],
    "images" : [
        {
            "mimeType" : "image/png",
            "name" : "aiStandardSurface1_emissive",
            "uri" : "texture/aiStandardSurface1_emissive.png"
        },
        {
            "mimeType" : "image/png",
            "name" : "aiStandardSurface1_baseColor",
            "uri" : "texture/aiStandardSurface1_baseColor.png"
        }
    ],
    "accessors" : [
        {
            "bufferView" : 0,
            "componentType" : 5126,
            "count" : 1464,
            "max" : [
                -0.4731373190879822,
                9.594403266906738,
                4.79393196105957
            ],
            "min" : [
                -0.9859682321548462,
                0.007132396101951599,
                -4.055764198303223
            ],
            "type" : "VEC3"
        },
        {
            "bufferView" : 1,
            "componentType" : 5126,
            "count" : 1464,
            "type" : "VEC3"
        },
        {
            "bufferView" : 2,
            "componentType" : 5126,
            "count" : 1464,
            "type" : "VEC2"
        },
        {
            "bufferView" : 3,
            "componentType" : 5123,
            "count" : 1740,
            "type" : "SCALAR"
        }
    ],
    "bufferViews" : [
        {
            "buffer" : 0,
            "byteLength" : 17568,
            "byteOffset" : 0
        },
        {
            "buffer" : 0,
            "byteLength" : 17568,
            "byteOffset" : 17568
        },
        {
            "buffer" : 0,
            "byteLength" : 11712,
            "byteOffset" : 35136
        },
        {
            "buffer" : 0,
            "byteLength" : 3480,
            "byteOffset" : 46848
        }
    ],
    "samplers" : [
        {
            "magFilter" : 9729,
            "minFilter" : 9987
        }
    ],
    "buffers" : [
        {
            "byteLength" : 50328,
            "uri" : "scene.bin"
        }
    ]
}
