# Blender v2.93.5 OBJ File: 'Sketchfab_2021_08_19_21_43_21.blend'
# www.blender.org
mtllib Sketchfab_2021_08_19_21_43_21.mtl
v -1.000000 5.001470 1.000000
v -1.000000 7.001470 1.000000
v -1.000000 5.001470 -1.000000
v -1.000000 7.001470 -1.000000
v 1.000000 5.001470 1.000000
v 1.000000 7.001470 1.000000
v 1.000000 5.001470 -1.000000
v 1.000000 7.001470 -1.000000
v -1.000000 2.000533 0.500000
v -1.000000 5.000533 0.500000
v 1.000000 2.000533 0.500000
v 1.000000 5.000533 0.500000
v -1.000000 2.000533 -0.500000
v -1.000000 5.000533 -0.500000
v 1.000000 2.000533 -0.500000
v 1.000000 5.000533 -0.500000
v 1.000000 2.000533 0.500000
v 1.000000 5.000533 0.500000
v 1.000000 2.000533 -0.500000
v 1.000000 5.000533 -0.500000
v 2.000000 2.000533 0.500000
v 2.000000 5.000533 0.500000
v 2.000000 5.000533 -0.500000
v 2.000000 2.000533 -0.500000
v -1.000000 -0.999467 0.500000
v -1.000000 2.000533 0.500000
v -1.000000 -0.999467 -0.500000
v -1.000000 2.000533 -0.500000
v 0.000000 -0.999467 0.500000
v 0.000000 2.000533 0.500000
v 0.000000 2.000533 -0.500000
v 0.000000 -0.999467 -0.500000
v -1.000000 2.000533 0.500000
v -1.000000 5.000533 0.500000
v -1.000000 2.000533 -0.500000
v -1.000000 5.000533 -0.500000
v -2.000000 2.000533 0.500000
v -2.000000 5.000533 0.500000
v -2.000000 5.000533 -0.500000
v -2.000000 2.000533 -0.500000
v 1.000000 -0.999467 0.500000
v 1.000000 2.000533 0.500000
v 1.000000 -0.999467 -0.500000
v 1.000000 2.000533 -0.500000
v 0.000000 -0.999467 0.500000
v 0.000000 2.000533 0.500000
v 0.000000 2.000533 -0.500000
v 0.000000 -0.999467 -0.500000
vt 0.170925 0.751356
vt 0.170925 0.870515
vt 0.067309 0.870515
vt 0.067309 0.751356
vt 0.497146 0.749853
vt 0.497146 0.874955
vt 0.388361 0.874955
vt 0.388361 0.749853
vt 0.391528 0.750480
vt 0.391528 0.874327
vt 0.283835 0.874327
vt 0.283835 0.750480
vt 0.281406 0.752740
vt 0.281406 0.875770
vt 0.174423 0.875770
vt 0.174423 0.752740
vt 0.283710 0.879840
vt 0.384358 0.879840
vt 0.384358 0.995586
vt 0.283710 0.995586
vt 0.282683 0.999326
vt 0.175530 0.999326
vt 0.175530 0.876100
vt 0.282683 0.876100
vt 0.171385 0.501964
vt 0.171385 0.687589
vt 0.119814 0.687589
vt 0.119814 0.501964
vt 0.124631 0.692184
vt 0.166403 0.692184
vt 0.166403 0.740221
vt 0.124631 0.740221
vt 0.117563 0.502332
vt 0.117563 0.687253
vt 0.066495 0.687253
vt 0.066495 0.502332
vt 0.281534 0.686499
vt 0.229335 0.686499
vt 0.229335 0.502968
vt 0.281534 0.502968
vt 0.175027 0.745545
vt 0.175027 0.690828
vt 0.222608 0.690828
vt 0.222608 0.745545
vt 0.225724 0.502183
vt 0.225724 0.687402
vt 0.174985 0.687402
vt 0.174985 0.502183
vt 0.171385 0.501964
vt 0.171385 0.687589
vt 0.119814 0.687589
vt 0.119814 0.501964
vt 0.124631 0.692184
vt 0.166403 0.692184
vt 0.166403 0.740221
vt 0.124631 0.740221
vt 0.117563 0.502332
vt 0.117563 0.687253
vt 0.066495 0.687253
vt 0.066495 0.502332
vt 0.281534 0.686499
vt 0.229335 0.686499
vt 0.229335 0.502968
vt 0.281534 0.502968
vt 0.175027 0.745545
vt 0.175027 0.690828
vt 0.222608 0.690828
vt 0.222608 0.745545
vt 0.225724 0.502183
vt 0.225724 0.687402
vt 0.174985 0.687402
vt 0.174985 0.502183
vt 0.445701 0.500173
vt 0.445701 0.687217
vt 0.499521 0.687217
vt 0.499521 0.500173
vt 0.445562 0.502237
vt 0.445562 0.687606
vt 0.336799 0.687606
vt 0.336799 0.502237
vt 0.553102 0.749405
vt 0.446529 0.749405
vt 0.446529 0.688126
vt 0.553102 0.688126
vt 0.336949 0.687804
vt 0.445647 0.687804
vt 0.445647 0.750306
vt 0.336949 0.750306
vt 0.608291 0.687836
vt 0.502615 0.687836
vt 0.502615 0.501393
vt 0.608291 0.501393
vt 0.334242 0.501846
vt 0.334242 0.686376
vt 0.282682 0.686376
vt 0.282682 0.501846
vt 0.607964 0.003191
vt 0.607964 0.187789
vt 0.556093 0.187789
vt 0.556093 0.003191
vt 0.665240 0.688160
vt 0.717460 0.688160
vt 0.717460 0.748213
vt 0.665240 0.748213
vt 0.556099 -0.000093
vt 0.556098 0.185647
vt 0.501029 0.185647
vt 0.501029 -0.000093
vt 0.715698 0.186325
vt 0.661984 0.186325
vt 0.661984 0.003198
vt 0.715698 0.003198
vt 0.609245 0.250163
vt 0.609245 0.190116
vt 0.661460 0.190116
vt 0.661460 0.250163
vt 0.662636 0.002592
vt 0.662636 0.187312
vt 0.609383 0.187312
vt 0.609383 0.002592
vt 0.607964 0.003191
vt 0.607964 0.187789
vt 0.556093 0.187789
vt 0.556093 0.003191
vt 0.665240 0.688160
vt 0.717460 0.688160
vt 0.717460 0.748213
vt 0.665240 0.748213
vt 0.556099 -0.000093
vt 0.556098 0.185647
vt 0.501029 0.185647
vt 0.501029 -0.000093
vt 0.715698 0.186325
vt 0.661984 0.186325
vt 0.661984 0.003198
vt 0.715698 0.003198
vt 0.609245 0.250163
vt 0.609245 0.190116
vt 0.661460 0.190116
vt 0.661460 0.250163
vt 0.662636 0.002592
vt 0.662636 0.187312
vt 0.609383 0.187312
vt 0.609383 0.002592
vn -1.0000 0.0000 0.0000
vn 0.0000 0.0000 -1.0000
vn 1.0000 0.0000 0.0000
vn 0.0000 0.0000 1.0000
vn 0.0000 -1.0000 0.0000
vn 0.0000 1.0000 0.0000
usemtl Material.001
s off
f 1/1/1 2/2/1 4/3/1 3/4/1
f 3/5/2 4/6/2 8/7/2 7/8/2
f 7/9/3 8/10/3 6/11/3 5/12/3
f 5/13/4 6/14/4 2/15/4 1/16/4
f 3/17/5 7/18/5 5/19/5 1/20/5
f 8/21/6 4/22/6 2/23/6 6/24/6
f 29/25/4 30/26/4 26/27/4 25/28/4
f 31/29/6 28/30/6 26/31/6 30/32/6
f 25/33/1 26/34/1 28/35/1 27/36/1
f 28/37/2 31/38/2 32/39/2 27/40/2
f 27/41/5 32/42/5 29/43/5 25/44/5
f 32/45/3 31/46/3 30/47/3 29/48/3
f 45/49/2 46/50/2 42/51/2 41/52/2
f 47/53/5 44/54/5 42/55/5 46/56/5
f 41/57/1 42/58/1 44/59/1 43/60/1
f 44/61/4 47/62/4 48/63/4 43/64/4
f 43/65/6 48/66/6 45/67/6 41/68/6
f 48/69/3 47/70/3 46/71/3 45/72/3
usemtl Material.002
f 15/73/3 16/74/3 12/75/3 11/76/3
f 11/77/4 12/78/4 10/79/4 9/80/4
f 13/81/5 15/82/5 11/83/5 9/84/5
f 16/85/6 14/86/6 10/87/6 12/88/6
f 14/89/2 16/90/2 15/91/2 13/92/2
f 9/93/1 10/94/1 14/95/1 13/96/1
usemtl Material.003
f 21/97/4 22/98/4 18/99/4 17/100/4
f 23/101/6 20/102/6 18/103/6 22/104/6
f 17/105/1 18/106/1 20/107/1 19/108/1
f 20/109/2 23/110/2 24/111/2 19/112/2
f 19/113/5 24/114/5 21/115/5 17/116/5
f 24/117/3 23/118/3 22/119/3 21/120/3
f 37/121/2 38/122/2 34/123/2 33/124/2
f 39/125/5 36/126/5 34/127/5 38/128/5
f 33/129/1 34/130/1 36/131/1 35/132/1
f 36/133/4 39/134/4 40/135/4 35/136/4
f 35/137/6 40/138/6 37/139/6 33/140/6
f 40/141/3 39/142/3 38/143/3 37/144/3
