P2
# Created by GIMP version 2.10.24 PNM plug-in
16 16
255
0
0
0
0
0
0
0
0
0
0
0
0
0
0
0
0
0
0
0
0
0
0
0
0
0
0
0
0
0
0
0
0
0
0
0
0
0
0
0
0
0
0
0
0
0
0
0
0
0
0
0
0
0
254
254
254
254
254
254
254
254
254
254
254
0
0
0
0
0
254
255
255
255
255
255
255
255
255
255
255
0
0
0
0
0
254
255
255
255
255
255
255
255
255
255
255
0
0
0
0
0
254
255
255
255
255
255
255
255
255
255
255
0
0
0
0
0
254
255
255
255
254
254
254
254
254
254
254
254
254
254
254
254
254
255
255
255
254
0
0
0
0
0
0
254
255
255
255
255
255
255
255
255
254
0
0
0
0
0
0
254
255
255
255
255
255
255
255
255
254
0
0
0
0
0
0
254
255
255
255
255
255
255
255
255
254
0
0
0
0
0
0
254
255
255
255
254
254
254
254
254
254
0
0
0
0
0
0
254
255
255
255
254
0
0
0
0
0
0
0
0
0
0
0
254
255
255
255
254
0
0
0
0
0
0
0
0
0
0
0
254
255
255
255
254
0
0
0
0
0
0
0
0
0
0
0
