{
    "asset" : {
        "generator" : "Khronos glTF Blender I/O v1.7.33",
        "version" : "2.0"
    },
    "scene" : 0,
    "scenes" : [
        {
            "name" : "Scene",
            "nodes" : [
                0
            ]
        }
    ],
    "nodes" : [
        {
            "mesh" : 0,
            "name" : "Minecraft__0014_DBD",
            "rotation" : [
                1,
                0,
                0,
                -1.6292068494294654e-07
            ]
        }
    ],
    "materials" : [
        {
            "doubleSided" : true,
            "name" : "palette.016",
            "pbrMetallicRoughness" : {
                "baseColorTexture" : {
                    "index" : 0
                },
                "metallicFactor" : 0
            }
        }
    ],
    "meshes" : [
        {
            "name" : "Minecraft__0014_DBD",
            "primitives" : [
                {
                    "attributes" : {
                        "POSITION" : 0,
                        "NORMAL" : 1,
                        "TEXCOORD_0" : 2
                    },
                    "indices" : 3,
                    "material" : 0
                }
            ]
        }
    ],
    "textures" : [
        {
            "sampler" : 0,
            "source" : 0
        }
    ],
    "images" : [
        {
            "mimeType" : "image/png",
            "name" : "Minecraft_Assets-0-Minecraft__0030_BG",
            "uri" : "textures/Minecraft_Assets-0-Minecraft__0030_BG.png"
        }
    ],
    "accessors" : [
        {
            "bufferView" : 0,
            "componentType" : 5126,
            "count" : 462,
            "max" : [
                0.7000007629394531,
                0.6500000953674316,
                0.05000000074505806
            ],
            "min" : [
                -0.6999998092651367,
                -0.6499998569488525,
                -0.05000000074505806
            ],
            "type" : "VEC3"
        },
        {
            "bufferView" : 1,
            "componentType" : 5126,
            "count" : 462,
            "type" : "VEC3"
        },
        {
            "bufferView" : 2,
            "componentType" : 5126,
            "count" : 462,
            "type" : "VEC2"
        },
        {
            "bufferView" : 3,
            "componentType" : 5123,
            "count" : 924,
            "type" : "SCALAR"
        }
    ],
    "bufferViews" : [
        {
            "buffer" : 0,
            "byteLength" : 5544,
            "byteOffset" : 0
        },
        {
            "buffer" : 0,
            "byteLength" : 5544,
            "byteOffset" : 5544
        },
        {
            "buffer" : 0,
            "byteLength" : 3696,
            "byteOffset" : 11088
        },
        {
            "buffer" : 0,
            "byteLength" : 1848,
            "byteOffset" : 14784
        }
    ],
    "samplers" : [
        {
            "magFilter" : 9729,
            "minFilter" : 9987
        }
    ],
    "buffers" : [
        {
            "byteLength" : 16632,
            "uri" : "scene.bin"
        }
    ]
}
